<svg xmlns="http://www.w3.org/2000/svg" width="97.883" height="40.773" viewBox="0 0 97.883 40.773">
    <defs>
        <clipPath id="clip-path">
            <rect id="Rectangle_9390" data-name="Rectangle 9390" width="97.882" height="40.773" fill="none"/>
        </clipPath>
    </defs>
    <g id="Group_97462" data-name="Group 97462" clip-path="url(#clip-path)">
        <path id="Path_133132" data-name="Path 133132"
              d="M4.678,0H87.707C92.642.3,95.9,2.121,97.323,5.809c1.543,4.006-.393,8.639-2.291,11.068-.153.2-.366.394-.387.549-.043.313.119.9.129,1.323a13.491,13.491,0,0,1-.484,3.776c-1.513,5.763-5.629,9.687-12.553,10.2-1.735.128-3.65.064-5.614.064H42.013a34.757,34.757,0,0,1-5.485-.193c-4.662-.793-7.871-3.649-8.132-8.906-.942,3.006-1.848,6.047-2.742,9.1H3.711C5.4,27.066,7.145,21.4,8.843,15.683H0v-.065Q2.371,7.841,4.678,0M3.84,12.811c2.937.022,8.842-.008,8.842-.008-1.7,5.715-3.438,11.426-5.13,17.143h15.94c1.76-5.683,3.425-11.462,5.195-17.135,1.765.022,5.324-.008,5.324-.008-.463,1.546-.892,3.089-1.356,4.591a33.682,33.682,0,0,0-1.29,4.615c-.628,3.938,1.246,6.414,4.163,7.389a17.692,17.692,0,0,0,5.356.549H76.316a54.8,54.8,0,0,0,5.808-.1,10.5,10.5,0,0,0,7.648-4.163c1.434-2.021,2.87-5.893,1.678-9.164a11.016,11.016,0,0,0,3.356-5.809c.648-2.911-.361-5.241-2.226-6.485S88.04,2.841,84.8,2.841H48.145A33.448,33.448,0,0,0,43.724,3a13.826,13.826,0,0,0-3.549.968c.106-.377.245-.722.322-1.129H6.873C5.787,6.088,4.862,9.5,3.84,12.811"
              transform="translate(0 -0.001)" fill-rule="evenodd"/>
        <path id="Path_133133" data-name="Path 133133"
              d="M24.762,16.063H58.387c-.077.406-.216.752-.322,1.129a13.834,13.834,0,0,1,3.549-.968,33.445,33.445,0,0,1,4.421-.161h36.658c3.237,0,5.924.15,7.777,1.387s2.874,3.574,2.226,6.485a11.016,11.016,0,0,1-3.356,5.809c1.192,3.271-.244,7.143-1.678,9.164a10.5,10.5,0,0,1-7.648,4.163,54.8,54.8,0,0,1-5.808.1H58.774a17.692,17.692,0,0,1-5.356-.549c-2.917-.975-4.791-3.451-4.163-7.389a33.688,33.688,0,0,1,1.29-4.615c.463-1.5.893-3.045,1.356-4.591l-5.324.008c-1.77,5.673-3.435,11.452-5.195,17.135H25.441c1.692-5.718,3.434-11.428,5.13-17.143l-8.842.008c1.022-3.313,1.947-6.723,3.033-9.97m.517,7.324,8.841-.008C32.437,29.1,30.713,34.813,28.99,40.49H39.445c1.714-5.708,3.41-11.435,5.163-17.1H53.45c.467-1.544.926-3.1,1.388-4.646H26.7c-.512,1.511-.933,3.111-1.42,4.646m42.756-4.646c-1.756,0-3.491-.1-5.227,0A8.424,8.424,0,0,0,57.322,20.9a10.814,10.814,0,0,0-2.581,4.97c-.869,2.869-1.787,5.76-2.614,8.68a6.735,6.735,0,0,0-.226,3.292c.458,1.727,2.151,2.46,4.356,2.614,2.255.156,4.766.032,6.938.032H77.136q1.989-6.594,3.969-13.2H69.972c-.495,1.539-.94,3.128-1.42,4.679.807.021,2.451-.008,2.451-.008-.392,1.286-.715,2.681-1.193,3.88-2.762-.242-7.106.937-6.9-2.129a12.3,12.3,0,0,1,.677-2.614c.257-.862.514-1.692.774-2.55.513-1.689.871-3.519,2.2-4.421a5.96,5.96,0,0,1,3.356-.743H82.3c.453-1.559.909-3.114,1.387-4.646ZM93.14,23.387H84.33c-1.686,5.726-3.427,11.4-5.131,17.1,6.226-.12,12.948.158,19.555,0,4.656-.112,7.252-2.55,8.164-6.487.322-1.391.425-3.054-.452-4a3.926,3.926,0,0,0-2.613-1,6.013,6.013,0,0,0,4.421-1.968,8.083,8.083,0,0,0,1.967-4.453c.213-2.966-2.252-3.84-5.1-3.84H85.815c-.02,0-.037.005-.032.032,2.458,1.51,5.016,3.095,7.358,4.614"
              transform="translate(-17.889 -13.223)" fill="#fff" fill-rule="evenodd"/>
        <path id="Path_133134" data-name="Path 133134" d="M43.237,31.224H71.375c-.462,1.55-.92,3.1-1.388,4.646H61.146c-1.754,5.668-3.45,11.4-5.163,17.1H45.528c1.723-5.677,3.447-11.394,5.13-17.111l-8.841.008c.487-1.535.908-3.135,1.42-4.646" transform="translate(-34.427 -25.706)" fill="#e50019" fill-rule="evenodd"/>
        <path id="Path_133135" data-name="Path 133135" d="M223.669,31.011c-.478,1.533-.934,3.087-1.387,4.646H209.891a5.96,5.96,0,0,0-3.356.743c-1.324.9-1.683,2.732-2.2,4.421-.26.858-.516,1.688-.774,2.55a12.3,12.3,0,0,0-.677,2.614c-.2,3.066,4.143,1.887,6.9,2.129.478-1.2.8-2.594,1.193-3.88l-2.451.008c.48-1.551.925-3.14,1.42-4.679h11.133q-1.979,6.607-3.969,13.2H203.179c-2.172,0-4.684.124-6.938-.032-2.205-.153-3.9-.886-4.356-2.614a6.735,6.735,0,0,1,.226-3.292c.828-2.92,1.745-5.81,2.614-8.68a10.814,10.814,0,0,1,2.581-4.97,8.424,8.424,0,0,1,5.485-2.162c1.736-.1,3.471,0,5.227,0Z" transform="translate(-157.873 -25.494)" fill="#e50019" fill-rule="evenodd"/>
        <path id="Path_133136" data-name="Path 133136" d="M353.52,31.257c-.005-.027.013-.031.032-.032h19.33c2.846,0,5.31.874,5.1,3.84a8.083,8.083,0,0,1-1.968,4.453,6.013,6.013,0,0,1-4.421,1.968,3.928,3.928,0,0,1,2.613,1c.877.948.774,2.611.452,4-.912,3.937-3.508,6.375-8.164,6.486-6.607.158-13.329-.12-19.555,0,1.7-5.708,3.445-11.377,5.131-17.1h8.81c-2.342-1.519-4.9-3.1-7.358-4.614M361.265,40c2.527.12,5.18-.143,5.582-2.194.429-2.187-2.364-1.888-4.324-1.9-.439,1.347-.826,2.745-1.258,4.1m-2.453,8.325c3.122.257,5.472-.648,5.808-3.227.286-2.188-2.09-2.166-4.227-2.1-.547,1.734-1.132,3.6-1.581,5.325" transform="translate(-285.626 -25.707)" fill="#e50019" fill-rule="evenodd"/>
        <path id="Path_133137" data-name="Path 133137" d="M429.273,57.671c1.959.016,4.753-.283,4.324,1.9-.4,2.051-3.055,2.315-5.582,2.194.432-1.354.819-2.751,1.258-4.1" transform="translate(-352.376 -47.475)" fill="#fff" fill-rule="evenodd"/>
        <path id="Path_133138" data-name="Path 133138" d="M415.717,97.774c2.136-.068,4.513-.09,4.227,2.1-.336,2.579-2.686,3.483-5.808,3.227.449-1.724,1.034-3.591,1.581-5.325" transform="translate(-340.95 -80.478)" fill="#fff" fill-rule="evenodd"/>
        <path id="Path_133139" data-name="Path 133139" d="M198.249,206.345H194.97l-1.176,3.384h.772l.4-1.147h2.175a1.659,1.659,0,0,0,1.634-1.046c.416-1-.186-1.191-.53-1.191m-.19,1.105a.7.7,0,0,1-.774.473h-2.08l.32-.946h2.1c.53,0,.545.172.43.473" transform="translate(-159.547 -169.88)"/>
        <path id="Path_133140" data-name="Path 133140" d="M225.1,206.344h-.785l-1.179,3.4h.77Z" transform="translate(-183.706 -169.879)"/>
        <path id="Path_133141" data-name="Path 133141" d="M238.813,209.168h-1.132l-.2.619h.932a.229.229,0,0,1,.253.332h-2.308a1.291,1.291,0,0,0-1.061.674c-.244.487-.079,1.27.6,1.27h1.978c.358,0,.824-.2,1.2-1.07s.536-1.824-.253-1.824m-.55,2.1c-.072.129-.143.244-.473.244H236.1c-.315,0-.373-.344-.229-.559a.756.756,0,0,1,.631-.33h2.064s-.158.387-.3.645" transform="translate(-193.627 -172.204)"/>
        <path id="Path_133142" data-name="Path 133142" d="M268.818,209.989h-.731l-.728,2.077h-1.966c-.158,0-.186-.158-.114-.344s.6-1.733.6-1.733h-.731s-.511,1.518-.626,1.791a.68.68,0,0,0,.726.958h1.887s-.082.3-.268.3H265.7l-.215.616h1.147a1.391,1.391,0,0,0,1.226-.913c.3-.832.964-2.751.964-2.751" transform="translate(-217.731 -172.88)"/>
        <path id="Path_133143" data-name="Path 133143" d="M309.871,206.345l-.2.644h-2.049a1.559,1.559,0,0,0-1.376,1.089c-.344.874-.5,1.66.272,1.66h1.849a1.561,1.561,0,0,0,1.347-.886c.33-.7.889-2.507.889-2.507Zm-1.52,2.834h-1.49c-.243,0-.186-.369.014-.914a.812.812,0,0,1,.774-.631h1.777c-.416,1.347-.831,1.545-1.075,1.545" transform="translate(-251.891 -169.88)"/>
        <path id="Path_133144" data-name="Path 133144" d="M333.02,210h-.731l-.944,2.752h.73Z" transform="translate(-272.79 -172.891)"/>
        <path id="Path_133145" data-name="Path 133145" d="M337.691,205.542c-.565.028-.86.63-.4.674.725.115.965-.688.4-.674" transform="translate(-277.498 -169.219)"/>
        <path id="Path_133146" data-name="Path 133146" d="M342.229,207.645h1.118l.189-.5h-1.12a.3.3,0,0,1,.33-.272h.874l.2-.532h-1.19c-.258,0-.76.087-1.018.89s-.875,2.5-.875,2.5h.768Z" transform="translate(-280.523 -169.88)"/>
        <path id="Path_133147" data-name="Path 133147" d="M359.395,207.645h1.118l.189-.5h-1.12a.3.3,0,0,1,.329-.272h.874l.2-.532H359.8c-.258,0-.76.087-1.018.89s-.256.8-.875,2.5h.768Z" transform="translate(-294.655 -169.88)"/>
        <path id="Path_133148" data-name="Path 133148" d="M379.678,209.922h-1.2a1.633,1.633,0,0,0-1.634.989c-.372,1.018-.3,1.772.7,1.772h.774l.2-.611h-.989c-.416,0-.258-.445-.258-.445h3a5.9,5.9,0,0,0,.33-.831c.129-.43-.115-.874-.918-.874m.115,1.175h-2.422a.678.678,0,0,1,.616-.516h1.591c.573,0,.215.516.215.516" transform="translate(-310.075 -172.825)"/>
        <path id="Path_133149" data-name="Path 133149" d="M422.1,209.922h-1.2a1.632,1.632,0,0,0-1.634.989c-.373,1.018-.3,1.772.7,1.772h.774l.2-.611h-.989c-.416,0-.258-.445-.258-.445h3a5.885,5.885,0,0,0,.33-.831c.129-.43-.114-.874-.917-.874m.115,1.175h-2.422a.678.678,0,0,1,.616-.516H422c.573,0,.215.516.215.516" transform="translate(-344.999 -172.825)"/>
        <path id="Path_133150" data-name="Path 133150" d="M402.065,210.723h.886l.217-.639h-1.075a1.3,1.3,0,0,0-1.132.817c-.215.559-.672,1.915-.672,1.915H401s.439-1.313.568-1.657.259-.436.5-.436" transform="translate(-329.551 -172.958)"/>
        <path id="Path_133151" data-name="Path 133151" d="M442.464,212.749h.792s.5-1.457.6-1.715a.522.522,0,0,1,.473-.378h1.39c.187,0,.315.092.244.335s-.612,1.758-.612,1.758h.793s.564-1.643.651-1.915.187-.831-.631-.831h-1.806a1.215,1.215,0,0,0-1.175.7c-.172.459-.715,2.044-.715,2.044" transform="translate(-364.272 -172.891)"/>
        <path id="Path_133152" data-name="Path 133152" d="M473.2,206.988h-1.186l.236-.644h-.8l-.225.644h-.414l-.218.656H471l-.731,2.093h.793l.731-2.093h1.189Z" transform="translate(-387.165 -169.879)"/>
    </g>
</svg>
