<svg xmlns="http://www.w3.org/2000/svg" width="110" height="40" viewBox="0 0 110 40">
    <defs>
        <clipPath id="clip-path">
            <rect id="Rectangle_8931" data-name="Rectangle 8931" width="110" height="40" transform="translate(202 4262)" fill="none" stroke="#707070" stroke-width="1"/>
        </clipPath>
        <clipPath id="clip-path-2">
            <rect id="Rectangle_8930" data-name="Rectangle 8930" width="110.069" height="37.849" fill="none"/>
        </clipPath>
    </defs>
    <g id="Mask_Group_50134" data-name="Mask Group 50134" transform="translate(-202 -4262)" clip-path="url(#clip-path)">
        <g id="Group_96610" data-name="Group 96610" transform="translate(202 4263)">
            <g id="Group_96609" data-name="Group 96609" clip-path="url(#clip-path-2)">
                <path id="Path_127461" data-name="Path 127461"
                      d="M5.261,0H98.627c5.549.331,9.215,2.384,10.813,6.531,1.735,4.5-.442,9.714-2.576,12.446-.172.221-.411.443-.435.618-.048.352.134,1.01.145,1.487a15.171,15.171,0,0,1-.544,4.246c-1.7,6.48-6.329,10.893-14.116,11.466-1.951.143-4.1.072-6.313.072H47.244a39.084,39.084,0,0,1-6.168-.217c-5.242-.891-8.85-4.1-9.145-10.015-1.059,3.38-2.078,6.8-3.084,10.233H4.173c1.9-6.431,3.862-12.806,5.771-19.231H0v-.073Q2.666,8.817,5.261,0m-.943,14.4c3.3.025,9.942-.009,9.942-.009-1.907,6.427-3.866,12.848-5.769,19.278H26.417c1.979-6.39,3.851-12.889,5.842-19.269,1.984.025,5.987-.009,5.987-.009-.52,1.739-1,3.474-1.524,5.163a37.875,37.875,0,0,0-1.451,5.189c-.706,4.428,1.4,7.212,4.682,8.309a19.9,19.9,0,0,0,6.023.617H85.817a61.621,61.621,0,0,0,6.531-.109,11.8,11.8,0,0,0,8.6-4.681c1.612-2.272,3.227-6.627,1.887-10.3a12.388,12.388,0,0,0,3.774-6.532c.729-3.274-.406-5.893-2.5-7.293S99,3.194,95.361,3.194H54.139a37.612,37.612,0,0,0-4.971.181,15.547,15.547,0,0,0-3.991,1.089c.119-.423.275-.812.362-1.269H7.728C6.507,6.846,5.468,10.68,4.318,14.406"
                      transform="translate(0 -0.001)" fill-rule="evenodd"/>
                <path id="Path_127462" data-name="Path 127462"
                      d="M25.139,16.063H62.95c-.087.457-.243.846-.362,1.269a15.557,15.557,0,0,1,3.991-1.089,37.609,37.609,0,0,1,4.971-.181h41.221c3.64,0,6.662.169,8.745,1.56s3.232,4.019,2.5,7.293a12.388,12.388,0,0,1-3.774,6.532c1.34,3.678-.275,8.033-1.887,10.305a11.8,11.8,0,0,1-8.6,4.681,61.625,61.625,0,0,1-6.531.109H63.386a19.9,19.9,0,0,1-6.023-.617c-3.28-1.1-5.387-3.881-4.681-8.309a37.882,37.882,0,0,1,1.451-5.189c.521-1.689,1-3.424,1.524-5.163l-5.987.009c-1.99,6.38-3.863,12.878-5.842,19.269H25.9c1.9-6.43,3.862-12.851,5.769-19.278l-9.942.009c1.15-3.725,2.189-7.56,3.41-11.211m.581,8.236,9.941-.009c-1.893,6.428-3.831,12.857-5.769,19.241H41.65c1.927-6.418,3.834-12.858,5.806-19.232H57.4c.525-1.736,1.041-3.482,1.56-5.225H27.318c-.576,1.7-1.049,3.5-1.6,5.225M73.8,19.074c-1.975,0-3.926-.115-5.878,0a9.473,9.473,0,0,0-6.168,2.431c-1.5,1.464-2.2,3.252-2.9,5.588-.978,3.227-2.009,6.477-2.94,9.76a7.574,7.574,0,0,0-.254,3.7c.515,1.942,2.419,2.767,4.9,2.939,2.535.176,5.36.036,7.8.036H84.034Q86.27,36.116,88.5,28.69H75.978c-.556,1.731-1.057,3.517-1.6,5.262.908.024,2.756-.009,2.756-.009-.441,1.446-.8,3.015-1.342,4.363-3.105-.272-7.991,1.053-7.765-2.395a13.831,13.831,0,0,1,.761-2.939c.29-.969.578-1.9.87-2.867.577-1.9.979-3.957,2.469-4.971A6.7,6.7,0,0,1,75.9,24.3H89.839c.509-1.753,1.022-3.5,1.56-5.225ZM102.031,24.3H92.124c-1.9,6.438-3.854,12.814-5.77,19.232,7-.135,14.56.178,21.99,0,5.236-.125,8.155-2.867,9.181-7.294.362-1.564.478-3.434-.508-4.5a4.415,4.415,0,0,0-2.938-1.124A6.762,6.762,0,0,0,119.05,28.4a9.089,9.089,0,0,0,2.212-5.008c.239-3.335-2.532-4.318-5.732-4.318H93.793c-.022,0-.042.006-.036.036,2.764,1.7,5.641,3.48,8.274,5.188"
                      transform="translate(-17.411 -12.869)" fill="#fff" fill-rule="evenodd"/>
                <path id="Path_127463" data-name="Path 127463" d="M43.414,31.224H75.055c-.519,1.743-1.035,3.489-1.56,5.225H63.552c-1.972,6.374-3.879,12.814-5.806,19.232H45.99c1.938-6.384,3.876-12.813,5.769-19.241l-9.941.009c.548-1.726,1.021-3.525,1.6-5.225" transform="translate(-33.507 -25.019)" fill="#e50019" fill-rule="evenodd"/>
                <path id="Path_127464" data-name="Path 127464" d="M227.642,31.017c-.537,1.723-1.051,3.471-1.56,5.225H212.148a6.7,6.7,0,0,0-3.774.835c-1.489,1.014-1.892,3.072-2.469,4.971-.292.965-.581,1.9-.87,2.867a13.831,13.831,0,0,0-.762,2.939c-.227,3.448,4.659,2.122,7.765,2.395.538-1.348.9-2.917,1.342-4.363l-2.756.009c.54-1.744,1.041-3.531,1.6-5.262H224.74q-2.225,7.429-4.463,14.842H204.6c-2.443,0-5.267.14-7.8-.036-2.48-.172-4.383-1-4.9-2.939a7.574,7.574,0,0,1,.254-3.7c.931-3.283,1.962-6.534,2.94-9.76.706-2.336,1.406-4.124,2.9-5.588a9.473,9.473,0,0,1,6.168-2.431c1.952-.115,3.9,0,5.878,0Z" transform="translate(-153.654 -24.812)" fill="#e50019" fill-rule="evenodd"/>
                <path id="Path_127465" data-name="Path 127465" d="M354.339,31.261c-.006-.031.014-.034.036-.036h21.736c3.2,0,5.972.983,5.733,4.318a9.089,9.089,0,0,1-2.213,5.008,6.762,6.762,0,0,1-4.972,2.214,4.417,4.417,0,0,1,2.939,1.124c.986,1.066.87,2.936.508,4.5-1.026,4.427-3.945,7.169-9.18,7.294-7.43.178-14.989-.135-21.99,0,1.916-6.418,3.873-12.794,5.77-19.232h9.906c-2.633-1.708-5.51-3.49-8.274-5.188m8.71,9.834c2.842.135,5.825-.161,6.277-2.468.482-2.46-2.659-2.123-4.862-2.141-.493,1.515-.929,3.086-1.414,4.609m-2.758,9.362c3.511.289,6.153-.729,6.531-3.628.322-2.461-2.35-2.436-4.753-2.359-.615,1.95-1.273,4.049-1.778,5.988" transform="translate(-277.993 -25.02)" fill="#e50019" fill-rule="evenodd"/>
                <path id="Path_127466" data-name="Path 127466" d="M429.43,57.672c2.2.018,5.344-.318,4.862,2.141-.451,2.307-3.435,2.6-6.277,2.467.486-1.522.921-3.094,1.414-4.609" transform="translate(-342.959 -46.206)" fill="#fff" fill-rule="evenodd"/>
                <path id="Path_127467" data-name="Path 127467" d="M415.914,97.776c2.4-.077,5.074-.1,4.753,2.359-.377,2.9-3.02,3.917-6.531,3.628.5-1.939,1.163-4.038,1.778-5.988" transform="translate(-331.838 -78.328)" fill="#fff" fill-rule="evenodd"/>
            </g>
        </g>
    </g>
</svg>
